<?xml version="1.0" encoding="iso-8859-1"?>
<!-- Uploaded to: SVG Repo, www.svgrepo.com, Generator: SVG Repo Mixer Tools -->
<!DOCTYPE svg PUBLIC "-//W3C//DTD SVG 1.1//EN" "http://www.w3.org/Graphics/SVG/1.1/DTD/svg11.dtd">
<svg fill="#2c64ff" height="800px" width="800px" version="1.1" id="Capa_1" xmlns="http://www.w3.org/2000/svg" xmlns:xlink="http://www.w3.org/1999/xlink" 
	 viewBox="0 0 511 511" xml:space="preserve">
<g>
	<path d="M436.166,74.834C387.908,26.577,323.747,0,255.5,0S123.092,26.577,74.834,74.834C26.577,123.092,0,187.253,0,255.5
		s26.577,132.408,74.834,180.666C123.092,484.423,187.253,511,255.5,511s132.408-26.577,180.666-74.834
		C484.423,387.908,511,323.747,511,255.5S484.423,123.092,436.166,74.834z M454.321,120.093c-1.42,0.225-2.792,0.859-3.925,1.911
		c-2.52,2.341-10.191,9.464-31.542-1.212c-7.585-3.792-17.978,0.543-35.879,14.956c-10.887,8.767-20.331,18.009-20.728,18.398
		c-2.957,2.9-3.002,7.649-0.101,10.606c1.468,1.497,3.41,2.248,5.354,2.248c1.895,0,3.792-0.714,5.252-2.146
		c16.036-15.732,34.442-29.619,40.076-30.308c20.019,9.819,36.091,9.3,47.775-1.55c0.448-0.416,0.826-0.878,1.149-1.366
		c16.948,28.105,27.889,59.377,32.18,92.212c-5.801-1.012-12.728-7.264-18.903-12.85c-4.73-4.279-9.198-8.32-13.801-10.763
		c-9.604-5.1-16.012-0.991-18.976,1.912c-19.171,18.771-46.841,31.362-54.961,34.814c-5.618-1.774-11.342-3.963-16.761-6.999
		c-12.625-7.073-28.485,2.781-45.276,13.214c-10.775,6.695-22.762,14.126-32.84,16.229l-5.304-175.023
		c2.436-2.486,4.673-5.438,6.82-9.018c2.768-4.612,6.637-5.41,15.125-6.776c6.206-0.999,13.928-2.241,21.931-6.442
		c12.106-6.354,29.542,1.883,48.001,10.604C393.82,79.753,409.159,87,423.5,87c1.059,0,2.065-0.222,2.978-0.618
		C436.861,96.876,446.157,108.159,454.321,120.093z M63.342,400.169c-31.239-41.314-48.203-91.375-48.334-144.055
		c9.044,6.999,18.16,12.347,26.482,17.22c13.975,8.183,26.043,15.25,32.717,27.165c18.483,32.996,34.042,41.273,44.337,46.75
		c2.136,1.137,3.981,2.118,5.282,3.069c13.137,9.598,16.432,15.867,20.247,23.126c3.541,6.737,7.554,14.373,18.92,23.976
		c1.016,0.858,2.183,1.721,3.462,2.581H64.917C64.376,400,63.85,400.06,63.342,400.169z M44.515,139.87
		c1.422,2.205,3.074,4.545,4.965,6.887C60.174,160,73.321,167,87.5,167c9.739,0,11.327,3.922,13.404,19.378
		c1.2,8.931,2.614,19.404,8.994,27.448c-5.597,1.956-12.306,3.03-21.742,2.203c-4.118-0.363-7.765,2.69-8.126,6.816
		c-0.362,4.126,2.689,7.765,6.816,8.127c21.419,1.879,32.481-4.312,42.24-9.773c8.516-4.766,15.241-8.531,29.23-6.293
		c13.081,2.093,22.063,13.303,30.749,24.144c8.357,10.431,16.969,21.17,29.427,23.486l-2.171,71.636
		c-5.263,2.99-9.974,6.981-13.818,11.807c-3.494-1.305-7.208-1.979-11.002-1.979c-14.785,0-27.216,10.241-30.591,24H159.5
		c-0.436,0-0.861,0.045-1.277,0.117c-0.29-0.546-0.58-1.095-0.873-1.652c-4.091-7.784-8.729-16.607-24.676-28.259
		c-2.163-1.58-4.554-2.853-7.085-4.199c-8.747-4.654-21.965-11.687-38.295-40.839c-8.666-15.469-23.023-23.877-38.224-32.778
		c-11.103-6.502-22.571-13.229-33.37-23.357C18.297,202.597,28.155,169.62,44.515,139.87z M272.183,87l7.303,241
		c-6.906,0.002-13.611,1.538-19.987,4.573c-6.379-3.037-13.089-4.573-20-4.573c-2.706,0-5.384,0.237-8.008,0.697L238.817,87H272.183
		z M191.5,359c3.316,0,6.517,0.983,9.255,2.845c1.725,1.173,3.859,1.573,5.893,1.107c2.033-0.466,3.779-1.757,4.821-3.563
		C217.385,349.126,227.864,343,239.5,343c5.602,0,11.062,1.524,16.228,4.53c2.332,1.357,5.213,1.357,7.545,0
		c5.166-3.006,10.625-4.53,16.228-4.53c7.266,0,14.235,2.5,20.155,7.23c1.788,1.429,4.129,1.962,6.359,1.451
		c1.999-0.459,3.793-0.682,5.486-0.682c10.894,0,20.145,7.149,23.321,17h-158C179.558,362.666,185.104,359,191.5,359z
		 M406.677,68.437c-6.892-2.463-14.15-5.884-21.282-9.254c-20.972-9.908-42.657-20.153-61.381-10.323
		c-5.832,3.062-11.683,4.003-17.341,4.914c-8.967,1.443-19.13,3.078-25.604,13.868c-1.002,1.669-2.003,3.097-3.022,4.359h-45.094
		c-1.019-1.262-2.021-2.689-3.022-4.358c-6.474-10.791-16.637-12.426-25.604-13.869c-5.658-0.91-11.509-1.852-17.341-4.914
		c-18.723-9.83-40.41,0.415-61.381,10.323c-7.132,3.37-14.391,6.791-21.282,9.254C146.991,33.821,199.796,15,255.5,15
		S364.009,33.821,406.677,68.437z M80.604,90.429c0.141,0.331,0.298,0.657,0.49,0.973c7.392,12.133,13.941,18.798,19.469,19.812
		c0.608,0.111,1.214,0.167,1.812,0.167c2.086,0,4.073-0.672,5.729-1.96c7.365-5.728,17.83-7.861,28.91-10.12
		c11.372-2.318,23.085-4.707,32.171-11.436c0.601,0.511,1.226,1.058,1.772,1.536c6.19,5.416,15.545,13.6,28.543,13.6
		c4.142,0,7.5-3.358,7.5-7.5s-3.358-7.5-7.5-7.5c-7.363,0-13.63-5.483-18.666-9.889c-2.223-1.945-4.143-3.625-6.12-4.808
		c-6.611-3.958-11.162-0.406-12.398,0.777c-6.314,6.04-16.993,8.217-28.298,10.521c-10.914,2.226-22.158,4.518-31.64,10.531
		c-1.852-1.97-4.422-5.331-6.752-8.843c11.924-1.988,24.322-7.845,36.386-13.545c18.46-8.721,35.897-16.959,48.001-10.604
		c8.002,4.201,15.725,5.443,21.931,6.442c8.488,1.366,12.357,2.164,15.125,6.776c2.147,3.579,4.385,6.531,6.82,9.017l-4.931,162.717
		c-6.174-2.433-11.832-9.487-18.189-17.422c-9.978-12.454-21.287-26.569-40.084-29.577c-17.577-2.813-27.875,1.924-36.625,6.737
		c-5.434-4.281-6.837-11.641-8.29-22.451C113.934,170.715,111.419,152,87.5,152c-18.72,0-30.239-19.094-34.162-26.89
		C61.276,112.855,70.38,101.247,80.604,90.429z M85.441,425.559c-3.432-3.433-6.734-6.96-9.931-10.559H199.5
		c3.631,0,6.739-2.601,7.381-6.174s-1.369-7.094-4.772-8.357c-6.085-2.259-23.235-9.269-29.435-14.507
		c-1.214-1.025-2.31-2.008-3.318-2.961h250.233c-0.85,1.614-1.712,3.218-2.607,4.79C412.28,396.05,394.802,408,375.5,408
		c-62.332,0-85.322,33.94-86.271,35.385c-1.512,2.305-1.639,5.253-0.329,7.678c1.309,2.425,3.843,3.937,6.6,3.937h94.419
		c-39.391,26.66-85.801,41-134.419,41C191.26,496,130.865,470.984,85.441,425.559z M425.559,425.559
		c-5.175,5.175-10.553,10.07-16.099,14.708c-0.626-0.169-1.281-0.268-1.96-0.268h-93.476c11.143-7.939,30.619-17,61.476-17
		c24.224,0,46.742-14.13,54.518-27.79c4.375-7.686,8.081-15.646,11.665-23.345c12.526-26.905,21.49-43.734,43.533-44.808
		C473.806,363.843,453.569,397.549,425.559,425.559z M489.294,312.225c-0.576-0.142-1.174-0.225-1.794-0.225
		c-34.492,0-47.162,27.215-59.416,53.535c-0.38,0.816-0.769,1.644-1.153,2.465h-76.655c-3.515-18.205-19.561-32-38.777-32
		c-1.741,0-3.503,0.131-5.325,0.397c-3.646-2.518-7.541-4.481-11.605-5.879l-1.695-55.944c13.424-1.966,27.058-10.437,40.297-18.663
		c11.196-6.957,25.125-15.613,30.029-12.869c10.992,6.158,22.704,9.271,32.114,11.771c7.56,2.009,14.7,3.906,18.005,6.546
		c2.857,2.281,4.679,6.735,6.789,11.892c3.966,9.692,8.901,21.755,24.169,29.021c1.04,0.495,2.137,0.729,3.217,0.729
		c2.804,0,5.493-1.579,6.778-4.279c1.78-3.74,0.19-8.215-3.55-9.995c-10.028-4.771-13.284-12.73-16.731-21.156
		c-2.659-6.499-5.408-13.218-11.311-17.932c-3.607-2.881-8.175-4.815-13.421-6.479c12.822-6.658,29.844-16.943,43.487-30.302
		c0.002-0.002,0.005-0.005,0.008-0.007c2.485,0.467,8.542,5.945,12.212,9.266c8.733,7.898,18.629,16.846,30.466,16.88
		c0.368,5.468,0.567,10.97,0.567,16.503C496,274.861,493.712,293.867,489.294,312.225z"/>
	<path d="M167.5,343c1.97,0,3.91-0.8,5.3-2.2c1.4-1.39,2.2-3.33,2.2-5.3s-0.8-3.91-2.2-5.3c-1.39-1.4-3.33-2.2-5.3-2.2
		c-1.97,0-3.91,0.8-5.3,2.2c-1.4,1.39-2.2,3.33-2.2,5.3s0.8,3.91,2.2,5.3C163.59,342.2,165.52,343,167.5,343z"/>
	<path d="M191.5,327c1.97,0,3.91-0.8,5.3-2.2c1.4-1.39,2.2-3.33,2.2-5.3s-0.8-3.91-2.2-5.3c-1.39-1.4-3.33-2.2-5.3-2.2
		c-1.97,0-3.91,0.8-5.3,2.2c-1.4,1.39-2.2,3.33-2.2,5.3c0,1.98,0.8,3.91,2.2,5.3C187.59,326.2,189.53,327,191.5,327z"/>
	<path d="M319.5,312c-1.97,0-3.91,0.8-5.3,2.2c-1.4,1.39-2.2,3.33-2.2,5.3c0,1.98,0.8,3.91,2.2,5.3c1.39,1.4,3.33,2.2,5.3,2.2
		c1.97,0,3.91-0.8,5.3-2.2c1.4-1.39,2.2-3.33,2.2-5.3s-0.8-3.91-2.2-5.3C323.41,312.8,321.47,312,319.5,312z"/>
	<path d="M367.5,344c-1.97,0-3.91,0.8-5.3,2.2c-1.4,1.39-2.2,3.33-2.2,5.3s0.8,3.91,2.2,5.3c1.39,1.4,3.33,2.2,5.3,2.2
		c1.97,0,3.91-0.8,5.3-2.2c1.4-1.39,2.2-3.32,2.2-5.3s-0.8-3.91-2.2-5.3C371.41,344.8,369.47,344,367.5,344z"/>
	<path d="M343.5,320c-1.98,0-3.91,0.8-5.3,2.2c-1.4,1.39-2.2,3.33-2.2,5.3s0.8,3.91,2.2,5.3c1.39,1.4,3.32,2.2,5.3,2.2
		s3.91-0.8,5.3-2.2c1.4-1.39,2.2-3.33,2.2-5.3c0-1.98-0.8-3.91-2.2-5.3C347.41,320.8,345.48,320,343.5,320z"/>
	<path d="M247.5,407h48c4.142,0,7.5-3.358,7.5-7.5s-3.358-7.5-7.5-7.5h-48c-4.142,0-7.5,3.358-7.5,7.5S243.358,407,247.5,407z"/>
	<path d="M263.5,440h-56c-4.142,0-7.5,3.358-7.5,7.5s3.358,7.5,7.5,7.5h56c4.142,0,7.5-3.358,7.5-7.5S267.642,440,263.5,440z"/>
	<path d="M183.5,440h-8c-4.142,0-7.5,3.358-7.5,7.5s3.358,7.5,7.5,7.5h8c4.142,0,7.5-3.358,7.5-7.5S187.642,440,183.5,440z"/>
	<path d="M231.5,431h16c4.142,0,7.5-3.358,7.5-7.5s-3.358-7.5-7.5-7.5h-16c-4.142,0-7.5,3.358-7.5,7.5S227.358,431,231.5,431z"/>
	<path d="M256,295.5v8c0,4.142,3.358,7.5,7.5,7.5s7.5-3.358,7.5-7.5v-8c0-4.142-3.358-7.5-7.5-7.5S256,291.358,256,295.5z"/>
	<path d="M247.5,279c4.142,0,7.5-3.358,7.5-7.5v-40c0-4.142-3.358-7.5-7.5-7.5s-7.5,3.358-7.5,7.5v40
		C240,275.642,243.358,279,247.5,279z"/>
	<path d="M255.5,207c4.142,0,7.5-3.358,7.5-7.5v-32c0-4.142-3.358-7.5-7.5-7.5s-7.5,3.358-7.5,7.5v32
		C248,203.642,251.358,207,255.5,207z"/>
	<path d="M255.5,151c4.142,0,7.5-3.358,7.5-7.5v-8c0-4.142-3.358-7.5-7.5-7.5s-7.5,3.358-7.5,7.5v8
		C248,147.642,251.358,151,255.5,151z"/>
</g>
</svg>